<svg width="512" height="512" viewBox="0 0 512 512" fill="none" xmlns="http://www.w3.org/2000/svg">
  <rect width="512" height="512" rx="96" fill="#020617"/>
  <path d="M256 96C256 96 160 203.2 160 288C160 345.4 206.6 392 264 392C321.4 392 368 345.4 368 288C368 203.2 256 96 256 96Z" fill="#14B8A6"/>
  <path d="M226 286C226 250.7 258.1 216 258.1 216C258.1 216 213.4 249.9 213.4 289.6C213.4 318.8 237 342.4 266.2 342.4C279.5 342.4 291.7 337.5 301 329.4C295.4 332.2 289 333.8 282.2 333.8C251 333.8 226 308.8 226 286Z" fill="#99F6E4" fill-opacity="0.85"/>
</svg>
